<svg width="192" height="192" viewBox="0 0 192 192" fill="none" xmlns="http://www.w3.org/2000/svg">
<path fill-rule="evenodd" clip-rule="evenodd" d="M176 50.776C175.999 45.7966 174.02 41.0215 170.499 37.5005C166.979 33.9796 162.203 32.0011 157.224 32H34.776C29.7966 32.0011 25.0215 33.9796 21.5005 37.5005C17.9796 41.0215 16.0011 45.7966 16 50.776V141.224C16.0011 146.203 17.9796 150.979 21.5005 154.499C25.0215 158.02 29.7966 159.999 34.776 160H157.224C162.203 159.999 166.979 158.02 170.499 154.499C174.02 150.979 175.999 146.203 176 141.224V50.776Z" fill="#000034"/>
<path fill-rule="evenodd" clip-rule="evenodd" d="M106.284 94.628L123.656 112L106.284 129.372C105.912 129.743 105.618 130.184 105.416 130.67C105.215 131.155 105.111 131.675 105.111 132.201C105.111 132.726 105.214 133.246 105.415 133.732C105.616 134.217 105.911 134.658 106.282 135.03C106.653 135.402 107.094 135.696 107.58 135.898C108.065 136.099 108.585 136.203 109.111 136.203C109.636 136.203 110.156 136.1 110.642 135.899C111.127 135.698 111.568 135.403 111.94 135.032L132.144 114.828C132.894 114.078 133.315 113.061 133.315 112C133.315 110.939 132.894 109.922 132.144 109.172L111.94 88.968C111.189 88.218 110.172 87.7968 109.111 87.7972C108.05 87.7976 107.032 88.2194 106.282 88.97C105.532 89.7206 105.111 90.7383 105.111 91.7994C105.112 92.8605 105.533 93.878 106.284 94.628ZM80.06 88.968L59.856 109.172C59.1061 109.922 58.6849 110.939 58.6849 112C58.6849 113.061 59.1061 114.078 59.856 114.828L80.06 135.032C80.8106 135.782 81.8283 136.203 82.8894 136.203C83.9505 136.202 84.968 135.781 85.718 135.03C86.468 134.279 86.8892 133.262 86.8888 132.201C86.8884 131.14 86.4666 130.122 85.716 129.372L68.344 112L85.716 94.628C86.4666 93.878 86.8884 92.8605 86.8888 91.7994C86.8892 90.7383 86.468 89.7206 85.718 88.97C84.968 88.2194 83.9505 87.7976 82.8894 87.7972C81.8283 87.7968 80.8106 88.218 80.06 88.968ZM16 60H176V50.776C175.999 45.7966 174.02 41.0215 170.499 37.5005C166.979 33.9796 162.203 32.0011 157.224 32H34.776C29.7966 32.0011 25.0215 33.9796 21.5005 37.5005C17.9796 41.0215 16.0011 45.7966 16 50.776V60Z" fill="#FFA523"/>
</svg>
